<svg xmlns="http://www.w3.org/2000/svg" width="14.177" height="18.479" viewBox="0 0 14.177 18.479">
  <g id="noun-accounting-4619554" transform="translate(-96.728)">
    <path id="Path_304" data-name="Path 304" d="M148.145,0H136.413a1.224,1.224,0,0,0-1.224,1.221V17.255a1.224,1.224,0,0,0,1.224,1.224h11.731a1.224,1.224,0,0,0,1.221-1.224V1.221A1.224,1.224,0,0,0,148.145,0Zm.5,17.255a.5.5,0,0,1-.5.5H136.413a.5.5,0,0,1-.488-.5V1.221a.5.5,0,0,1,.488-.5h11.731a.5.5,0,0,1,.5.5Z" transform="translate(-38.461)" fill="#3f465e"/>
    <path id="Path_305" data-name="Path 305" d="M192.974,47.426H182.623a.361.361,0,0,0-.361.361v3.6a.361.361,0,0,0,.361.361h10.351a.361.361,0,0,0,.358-.361v-3.6a.361.361,0,0,0-.358-.361Zm-.361,3.6h-9.629V48.142h9.629Z" transform="translate(-83.98 -45.861)" fill="#3f465e"/>
    <path id="Path_306" data-name="Path 306" d="M185.361,197.66H186.4a.6.6,0,0,1,.563.563v1.042a.563.563,0,0,1-.563.563h-1.042a.6.6,0,0,1-.563-.563v-1.042A.563.563,0,0,1,185.361,197.66Z" transform="translate(-86.433 -191.138)" fill="#3f465e"/>
    <path id="Path_307" data-name="Path 307" d="M185.977,444.32h-1.039a.577.577,0,0,0-.577.577v1.037a.577.577,0,0,0,.577.577h1.039a.577.577,0,0,0,.577-.577v-1.048a.578.578,0,0,0-.577-.566Z" transform="translate(-86.009 -429.658)" fill="#3f465e"/>
    <path id="Path_308" data-name="Path 308" d="M274.267,280h-1.039a.578.578,0,0,0-.578.563V281.6a.578.578,0,0,0,.577.577h1.039a.577.577,0,0,0,.563-.577v-1.039a.577.577,0,0,0-.563-.563Z" transform="translate(-171.385 -270.76)" fill="#3f465e"/>
    <path id="Path_309" data-name="Path 309" d="M274.267,362.16h-1.039a.578.578,0,0,0-.577.577v1.037h0a.578.578,0,0,0,.577.578h1.039a.577.577,0,0,0,.563-.578v-1.051a.577.577,0,0,0-.563-.563Z" transform="translate(-171.386 -350.209)" fill="#3f465e"/>
    <path id="Path_310" data-name="Path 310" d="M273.561,197.66H274.6a.6.6,0,0,1,.563.563v1.042a.563.563,0,0,1-.563.563h-1.042a.6.6,0,0,1-.563-.563v-1.042A.563.563,0,0,1,273.561,197.66Z" transform="translate(-171.722 -191.138)" fill="#3f465e"/>
    <path id="Path_311" data-name="Path 311" d="M185.977,280h-1.039a.577.577,0,0,0-.577.563V281.6a.577.577,0,0,0,.577.577h1.039a.577.577,0,0,0,.577-.577v-1.039a.577.577,0,0,0-.577-.563Z" transform="translate(-86.009 -270.76)" fill="#3f465e"/>
    <path id="Path_312" data-name="Path 312" d="M185.977,362.159h-1.039a.577.577,0,0,0-.577.577v1.037h0a.577.577,0,0,0,.577.577h1.039a.577.577,0,0,0,.577-.577v-1.051a.577.577,0,0,0-.577-.563Z" transform="translate(-86.009 -350.209)" fill="#3f465e"/>
    <path id="Path_313" data-name="Path 313" d="M362.557,444.319h-1.039a.577.577,0,0,0-.577.577v1.037a.577.577,0,0,0,.577.577h1.039a.577.577,0,0,0,.563-.578v-1.048a.577.577,0,0,0-.563-.566Z" transform="translate(-256.762 -429.658)" fill="#3f465e"/>
    <path id="Path_314" data-name="Path 314" d="M450.141,197.66h1.042a.6.6,0,0,1,.563.563v1.042a.563.563,0,0,1-.563.563h-1.042a.6.6,0,0,1-.563-.563v-1.042A.563.563,0,0,1,450.141,197.66Z" transform="translate(-342.475 -191.138)" fill="#3f465e"/>
    <path id="Path_315" data-name="Path 315" d="M451.18,280h-1.039a.577.577,0,0,0-.563.563V281.6a.578.578,0,0,0,.563.577h1.039a.577.577,0,0,0,.577-.577v-1.039a.577.577,0,0,0-.577-.563Z" transform="translate(-342.475 -270.76)" fill="#3f465e"/>
    <path id="Path_316" data-name="Path 316" d="M451.18,362.16H450.14a.578.578,0,0,0-.563.577v3.754a.578.578,0,0,0,.563.577h1.039a.578.578,0,0,0,.577-.577v-3.754a.577.577,0,0,0-.577-.577Z" transform="translate(-342.475 -350.209)" fill="#3f465e"/>
    <path id="Path_317" data-name="Path 317" d="M361.851,197.66h1.042a.6.6,0,0,1,.563.563v1.042a.563.563,0,0,1-.563.563h-1.042a.6.6,0,0,1-.563-.563v-1.042A.563.563,0,0,1,361.851,197.66Z" transform="translate(-257.099 -191.138)" fill="#3f465e"/>
    <path id="Path_318" data-name="Path 318" d="M274.267,444.319h-1.039a.578.578,0,0,0-.577.577v1.037a.578.578,0,0,0,.577.577h1.039a.577.577,0,0,0,.563-.578v-1.048a.577.577,0,0,0-.563-.566Z" transform="translate(-171.386 -429.658)" fill="#3f465e"/>
    <path id="Path_319" data-name="Path 319" d="M362.557,362.16h-1.039a.577.577,0,0,0-.577.577v1.037h0a.577.577,0,0,0,.577.578h1.039a.577.577,0,0,0,.563-.578v-1.051a.577.577,0,0,0-.563-.563Z" transform="translate(-256.762 -350.209)" fill="#3f465e"/>
    <path id="Path_320" data-name="Path 320" d="M362.557,280h-1.039a.577.577,0,0,0-.577.563V281.6a.577.577,0,0,0,.577.577h1.039a.577.577,0,0,0,.563-.577v-1.039a.578.578,0,0,0-.563-.563Z" transform="translate(-256.762 -270.76)" fill="#3f465e"/>
  </g>
</svg>
