<svg xmlns="http://www.w3.org/2000/svg" width="14.166" height="11.424" viewBox="0 0 14.166 11.424">
  <path id="Path_321" data-name="Path 321" d="M188.964,140H178a1.6,1.6,0,0,0-1.6,1.6v8.225a1.6,1.6,0,0,0,1.6,1.6h10.967a1.6,1.6,0,0,0,1.6-1.6V141.6a1.6,1.6,0,0,0-1.6-1.6ZM178,141.371h10.967a.228.228,0,0,1,.229.228v2.056H177.768V141.6a.228.228,0,0,1,.229-.228Zm10.967,8.682H178a.228.228,0,0,1-.229-.228v-4.8h11.424v4.8a.228.228,0,0,1-.229.228Z" transform="translate(-176.397 -140)" fill="#3f465e"/>
</svg>
