<svg xmlns="http://www.w3.org/2000/svg" width="33.674" height="33.674" viewBox="0 0 33.674 33.674">
  <path id="Path_325" data-name="Path 325" d="M116.075,27.291H114.3a1.6,1.6,0,0,1-1.489-1.063c-.071-.213-.177-.425-.248-.6a1.566,1.566,0,0,1,.319-1.808l1.276-1.276a1.584,1.584,0,0,0,0-2.269L111.4,17.508a1.584,1.584,0,0,0-2.269,0l-1.276,1.276a1.624,1.624,0,0,1-1.808.319c-.213-.071-.39-.177-.6-.248a1.6,1.6,0,0,1-1.063-1.489V15.594a1.588,1.588,0,0,0-1.6-1.6h-3.9a1.588,1.588,0,0,0-1.6,1.6V17.4a1.565,1.565,0,0,1-1.063,1.489,4.305,4.305,0,0,0-.6.248,1.636,1.636,0,0,1-1.808-.319l-1.276-1.276a1.584,1.584,0,0,0-2.269,0l-2.765,2.765a1.584,1.584,0,0,0,0,2.269l1.276,1.276A1.624,1.624,0,0,1,89.1,25.66a4.336,4.336,0,0,0-.248.6,1.6,1.6,0,0,1-1.489,1.063H85.591a1.588,1.588,0,0,0-1.6,1.6v3.9a1.581,1.581,0,0,0,1.6,1.56h1.737a1.565,1.565,0,0,1,1.489,1.063c.071.213.177.425.248.638a1.636,1.636,0,0,1-.319,1.808L87.506,39.13a1.584,1.584,0,0,0,0,2.269l2.765,2.765a1.584,1.584,0,0,0,2.269,0l1.205-1.205a1.569,1.569,0,0,1,1.772-.319c.248.106.5.213.709.319a1.618,1.618,0,0,1,1.028,1.489v1.631a1.588,1.588,0,0,0,1.6,1.6h3.9a1.588,1.588,0,0,0,1.6-1.6V44.341a1.6,1.6,0,0,1,1.028-1.489,4.3,4.3,0,0,0,.709-.319,1.569,1.569,0,0,1,1.772.319l1.205,1.205a1.584,1.584,0,0,0,2.269,0l2.765-2.765a1.584,1.584,0,0,0,0-2.269l-1.205-1.17a1.613,1.613,0,0,1-.319-1.808,4.744,4.744,0,0,0,.248-.638,1.6,1.6,0,0,1,1.489-1.063h1.772a1.588,1.588,0,0,0,1.595-1.6v-3.9a1.581,1.581,0,0,0-1.595-1.56Zm-15.242,9.748a6.2,6.2,0,1,1,6.2-6.2A6.187,6.187,0,0,1,100.834,37.039Z" transform="translate(-83.996 -13.999)" fill="#fff"/>
</svg>
